<svg width="48" height="48" viewBox="0 0 48 48" fill="none" xmlns="http://www.w3.org/2000/svg">
<path d="M2 2.59998H46V45.4H2V2.59998Z" fill="#2E001E"/>
<path d="M0 0.599976V47.4H48V0.599976H0ZM2 2.59998H46V45.4H2V2.59998Z" fill="#FF2BC2"/>
<path d="M34.86 20.26C34.56 20.12 34.18 20.06 33.7 20.06C31.18 20.06 29.5 22 29.5 25.22C29.5 28.9 31.22 30.38 33.46 30.38C33.94 30.38 34.46 30.32 34.84 30.16V20.26H34.86ZM25.9 25.38C25.9 20.72 28.9 17.08 33.82 17.08C34.24 17.08 34.46 17.08 34.86 17.12V11.92C34.86 11.8 34.96 11.72 35.06 11.72H38.28C38.44 11.72 38.48 11.78 38.48 11.88V30.16C38.48 30.7 38.48 31.38 38.58 32.12C38.58 32.26 38.58 32.28 38.46 32.34C36.78 33.14 35.02 33.5 33.34 33.5C29 33.5 25.9 30.82 25.9 25.38V25.38ZM19.08 22.14L24.68 33C24.78 33.16 24.72 33.32 24.56 33.32H21.08C20.86 33.32 20.76 33.26 20.66 33.06C19.38 30.42 18.08 27.68 16.74 24.84H16.7C15.5 27.52 14.18 30.44 12.9 33.08C12.8 33.24 12.7 33.3 12.54 33.3H9.21998C9.01998 33.3 8.99998 33.14 9.09998 33.02L14.58 22.48L9.27998 12C9.15998 11.84 9.27998 11.7 9.41998 11.7H12.86C13.06 11.7 13.16 11.74 13.22 11.92C14.48 14.58 15.76 17.2 16.96 19.88H17C18.16 17.24 19.44 14.58 20.66 11.96C20.76 11.8 20.82 11.7 21.02 11.7H24.24C24.4 11.7 24.46 11.82 24.36 12L19.08 22.14V22.14Z" fill="#FF2BC2"/>
</svg>
