<svg width="48" height="48" viewBox="0 0 48 48" fill="none" xmlns="http://www.w3.org/2000/svg">
<path d="M48 24C48 10.7452 37.2548 0 24 0C10.7452 0 0 10.7452 0 24C0 37.2548 10.7452 48 24 48C37.2548 48 48 37.2548 48 24Z" fill="url(#paint0_linear_690_539)"/>
<path d="M12.9913 25.0244L29.3509 8.77743C29.6565 8.47391 30.1484 8.84327 29.942 9.22138L23.8531 20.3813C23.7172 20.6301 23.8974 20.9338 24.1809 20.9338H34.7036C35.0426 20.9338 35.2062 21.349 34.9583 21.5804L16.5189 38.7898C16.1883 39.0983 15.6961 38.6635 15.9616 38.2974L24.6904 26.2558C24.8694 26.0089 24.693 25.663 24.388 25.663H13.2545C12.9211 25.663 12.7548 25.2594 12.9913 25.0244V25.0244Z" fill="white"/>
<defs>
<linearGradient id="paint0_linear_690_539" x1="24" y1="0" x2="24" y2="48" gradientUnits="userSpaceOnUse">
<stop stop-color="#7BCBD4"/>
<stop offset="1" stop-color="#29C6B7"/>
</linearGradient>
</defs>
</svg>
