<svg width="48" height="48" viewBox="0 0 48 48" fill="none" xmlns="http://www.w3.org/2000/svg">
<path d="M23.9707 48L4.36837 43.2017L0 0H48L43.6271 43.1951L23.9707 48V48Z" fill="#264DE4"/>
<path d="M39.8834 40.4445L43.6201 3.53229H24V44.3272L39.8834 40.4445V40.4445Z" fill="#2965F1"/>
<path d="M10.0143 19.5552L10.5528 24.8537H24V19.5552H10.0143ZM8.93201 8.83093L9.47822 14.1294H24V8.83093H8.93201V8.83093ZM24 33.316L23.9736 33.3222L17.2813 31.7288L16.8535 27.5031H10.8213L11.6631 35.8225L23.9723 38.8354L24 38.8287V33.316Z" fill="#EBEBEB"/>
<path d="M37.9473 19.5552L39.032 8.83093H23.9793V14.1294H32.4466L31.8998 19.5552H23.9793V24.8537H31.3789L30.6812 31.7255L23.9791 33.3205V38.8329L36.2981 35.8225L36.3885 34.9273L37.8007 20.978L37.9473 19.5552V19.5552Z" fill="white"/>
</svg>
