<svg width="48" height="28" viewBox="0 0 48 28" fill="none" xmlns="http://www.w3.org/2000/svg">
<path d="M48 27.1028C47.3014 27.367 46.5303 27.3664 45.8321 27.1012C45.1339 26.8359 44.5569 26.3243 44.21 25.6628L37.31 16.1208L36.31 14.7868L28.304 25.6748C27.978 26.3085 27.4323 26.8018 26.769 27.0624C26.1057 27.323 25.3702 27.3331 24.7 27.0908L35.016 13.2508L25.42 0.748804C26.11 0.500153 26.8646 0.496857 27.5567 0.739469C28.2489 0.982081 28.8363 1.45578 29.22 2.0808L36.372 11.7408L43.564 2.1208C43.8926 1.49838 44.4384 1.01838 45.0977 0.772061C45.757 0.525742 46.4838 0.530277 47.14 0.784804L43.416 5.7268L38.372 12.2928C38.2319 12.4178 38.1199 12.5709 38.0431 12.7422C37.9664 12.9135 37.9267 13.0991 37.9267 13.2868C37.9267 13.4745 37.9664 13.6601 38.0431 13.8314C38.1199 14.0027 38.2319 14.1559 38.372 14.2808L47.98 27.1048L48 27.1028ZM0.00402399 13.0788L0.844024 8.92881C3.15202 0.722805 12.56 -2.6912 19.032 2.3888C22.822 5.3668 23.768 9.58281 23.582 14.3348H2.23202C1.88602 22.8208 8.01002 27.9448 15.84 25.3268C17.1093 24.8699 18.2455 24.1053 19.1467 23.1014C20.048 22.0976 20.6861 20.8859 21.004 19.5748C21.418 18.2428 22.1 18.0148 23.352 18.3988C23.1434 20.0236 22.569 21.5799 21.6722 22.9506C20.7753 24.3214 19.5793 25.471 18.174 26.3128C15.8529 27.5825 13.1897 28.0857 10.5653 27.7505C7.94087 27.4154 5.48962 26.259 3.56202 24.4468C1.65608 22.3016 0.504176 19.5918 0.282024 16.7308C0.282024 16.2608 0.122024 15.8208 0.014024 15.3988C0.00428805 14.6262 -0.000378714 13.8535 2.39926e-05 13.0808L0.00402399 13.0788ZM2.25802 12.5068H21.566C21.446 6.3548 17.564 1.9908 12.386 1.9508C6.62202 1.8708 2.49802 6.1388 2.24402 12.4788L2.25802 12.5068Z" fill="white"/>
</svg>
