<svg width="48" height="48" viewBox="0 0 48 48" fill="none" xmlns="http://www.w3.org/2000/svg">
<path d="M32 32C36.4183 32 40 28.4183 40 24C40 19.5817 36.4183 16 32 16C27.5817 16 24 19.5817 24 24C24 28.4183 27.5817 32 32 32Z" fill="#19BCFE"/>
<path fill-rule="evenodd" clip-rule="evenodd" d="M16 48C20.4183 48 24 44.4183 24 40C24 38.7939 24 36.1272 24 32C20.4061 32 17.7394 32 16 32C11.5817 32 8 35.5817 8 40C8 44.4183 11.5817 48 16 48Z" fill="#09CF83"/>
<path fill-rule="evenodd" clip-rule="evenodd" d="M16 32C17.4728 32 20.1394 32 24 32V16C20.1394 16 17.4728 16 16 16C11.5817 16 8 19.5817 8 24C8 28.4183 11.5817 32 16 32Z" fill="#A259FF"/>
<path fill-rule="evenodd" clip-rule="evenodd" d="M16 16C17.4728 16 20.1394 16 24 16V0C20.1394 0 17.4728 0 16 0C11.5817 0 8 3.58172 8 8C8 12.4183 11.5817 16 16 16Z" fill="#F24E1E"/>
<path fill-rule="evenodd" clip-rule="evenodd" d="M32 16H24V0H32C36.4183 0 40 3.58172 40 8C40 12.4183 36.4183 16 32 16Z" fill="#FF7262"/>
</svg>
