<svg width="49" height="48" viewBox="0 0 49 48" fill="none" xmlns="http://www.w3.org/2000/svg">
<path d="M48 0L43.9814 43.1936L24.3644 47.9984L4.72276 43.2002L0 0H48Z" fill="#E44D26"/>
<path d="M24.3636 44.3257L40.2151 40.4432L43.6491 3.53217H24.0289L24.3636 44.3257Z" fill="#F16529"/>
<path d="M15.6151 14.129H24.1159L24.0725 8.83063H9.00452L9.15993 10.2521L10.7567 24.8529H24.2039L24.1604 19.5545H16.2089L15.6151 14.129V14.129ZM17.0792 27.5021H11.0469L11.957 35.8213L24.2909 38.8341L24.3185 38.8274L24.2733 33.3149L24.247 33.321L17.5417 31.7277L17.0792 27.5021V27.5021Z" fill="#EBEBEB"/>
<path d="M24.1831 24.8529H31.5827L30.9414 31.7244L24.2524 33.3194L24.2976 38.8316L36.5919 35.8213L36.6749 34.9261L37.9728 20.9773L38.1077 19.5545H24.1397L24.1831 24.8529ZM24.0951 14.116L24.0952 14.129H38.6099L38.7206 12.9381L38.9725 10.2521L39.1044 8.83063H24.0517L24.0951 14.1162L24.0951 14.116Z" fill="white"/>
</svg>
