<svg width="49" height="48" viewBox="0 0 49 48" fill="none" xmlns="http://www.w3.org/2000/svg">
<path d="M0 0H48L48.3937 47.9984H0.393742L0 0Z" fill="#F7DF1E"/>
<path d="M12.95 40.1109L16.605 37.888C17.324 39.1444 17.9774 40.2075 19.5237 40.2075C21.0059 40.2075 21.9356 39.6277 21.9171 37.3725L21.7913 22.0359H26.3021L26.4284 37.4363C26.4667 42.1081 23.7456 44.2346 19.7501 44.2346C16.1416 44.2346 14.0316 42.3658 12.9499 40.1106" fill="black"/>
<path d="M28.8965 39.6276L32.5519 37.5011C33.5318 39.0801 34.7979 40.2399 37.021 40.2399C38.89 40.2399 40.0742 39.3054 40.0636 38.0166C40.0509 36.4701 38.8221 35.9223 36.7525 35.0205L35.6212 34.5368C32.3553 33.1517 30.1822 31.4118 30.1521 27.7387C30.1243 24.3557 32.6808 21.778 36.7085 21.778C39.5762 21.778 41.6465 22.7769 43.1499 25.3867L39.6563 27.642C38.8716 26.2566 38.0296 25.709 36.7408 25.709C35.4198 25.709 34.5889 26.5467 34.5978 27.642C34.6089 28.9952 35.4512 29.5431 37.3911 30.3808L38.5227 30.8641C42.3705 32.5074 44.5431 34.1826 44.574 37.9522C44.6073 42.0121 41.4358 44.235 37.1505 44.235C32.9618 44.235 30.2389 42.2375 28.8966 39.6276" fill="black"/>
</svg>
