<svg width="48" height="48" viewBox="0 0 48 48" fill="none" xmlns="http://www.w3.org/2000/svg">
<path d="M40.6335 23.679C40.6335 22.6422 40.2217 21.648 39.4886 20.9149C38.7555 20.1818 37.7612 19.77 36.7245 19.77C36.5872 19.7698 36.45 19.7768 36.3135 19.791L41.6835 3.95398H18.864L24.2265 19.7775C24.1485 19.7775 24.069 19.77 23.9895 19.77C23.056 19.7689 22.153 20.1019 21.4437 20.7088C20.7344 21.3157 20.2657 22.1563 20.1224 23.0787C19.979 24.0011 20.1705 24.9444 20.6622 25.7379C21.1538 26.5314 21.9132 27.1227 22.803 27.405C21.9715 28.8367 20.9361 30.1398 19.7295 31.2735C18.1588 32.775 16.2927 33.9331 14.25 34.674C13.1055 34.1316 12.2104 33.1739 11.7465 31.9954C11.2827 30.8169 11.2848 29.506 11.7525 28.329C11.868 28.059 11.985 27.786 12.096 27.513C12.9676 27.3077 13.7423 26.8096 14.2908 26.1017C14.8392 25.3939 15.1281 24.5193 15.1092 23.6241C15.0903 22.7289 14.7648 21.8673 14.187 21.1832C13.6092 20.4992 12.8141 20.0341 11.9347 19.8658C11.0552 19.6975 10.1446 19.8361 9.35506 20.2585C8.56551 20.6808 7.94481 21.3613 7.5967 22.1863C7.24859 23.0113 7.19414 23.9308 7.44246 24.7911C7.69077 25.6514 8.22681 26.4004 8.961 26.913C7.71324 29.1754 6.76097 31.5886 6.1275 34.0935C5.5965 37.296 6.1275 40.6935 8.895 42.615C15.345 47.0865 22.3485 39.843 29.7315 38.0235C32.4075 37.3635 35.3445 37.47 37.701 36.105C38.5524 35.6201 39.2865 34.9537 39.8514 34.1532C40.4163 33.3527 40.798 32.4376 40.9695 31.473C41.1263 30.5538 41.0968 29.6125 40.8826 28.7049C40.6685 27.7974 40.2741 26.9421 39.723 26.19C40.3111 25.4872 40.6329 24.5998 40.632 23.6835L40.6335 23.679ZM27.9 23.7V23.6865C27.9011 23.0138 27.7282 22.3522 27.3981 21.7661C27.068 21.18 26.5919 20.6892 26.016 20.3415L30.282 11.7L34.557 20.421C34.0207 20.7774 33.581 21.261 33.2771 21.8287C32.9732 22.3964 32.8146 23.0306 32.8155 23.6745C32.8155 23.703 32.8155 23.7315 32.8155 23.76L27.9 23.7Z" fill="#C63D14"/>
<path d="M41.589 23.679C41.5875 22.5456 41.1908 21.4482 40.4671 20.5758C39.7434 19.7035 38.7382 19.1108 37.6245 18.9L43.0155 3H17.5335L22.9335 18.9315C21.9908 19.1422 21.1322 19.629 20.4673 20.3298C19.8025 21.0305 19.3614 21.9134 19.2005 22.8659C19.0395 23.8184 19.166 24.7973 19.5637 25.6776C19.9614 26.5579 20.6124 27.2997 21.4335 27.8085C20.7552 28.8163 19.9663 29.745 19.0815 30.5775C17.712 31.8878 16.1026 32.9217 14.3415 33.6225C13.5151 33.1427 12.8886 32.3819 12.5763 31.4787C12.2641 30.5756 12.2869 29.5903 12.6405 28.7025L12.7005 28.563L12.8115 28.3005C13.8113 27.9539 14.6708 27.291 15.26 26.4121C15.8493 25.5332 16.136 24.4863 16.077 23.4298C16.0179 22.3734 15.6162 21.3649 14.9327 20.5572C14.2492 19.7495 13.3211 19.1865 12.2889 18.9535C11.2568 18.7205 10.1768 18.8302 9.21262 19.2659C8.2484 19.7017 7.45242 20.4397 6.94522 21.3684C6.43802 22.297 6.24723 23.3656 6.40175 24.4123C6.55626 25.4591 7.04766 26.427 7.80153 27.1695C7.63953 27.516 7.46853 27.867 7.29303 28.2285C6.32047 30.0167 5.61307 31.9368 5.19303 33.9285C4.49553 38.1285 5.62053 41.493 8.35953 43.3905C9.82989 44.442 11.5934 45.005 13.401 45C16.599 45 19.8345 43.3935 23.001 41.8215C25.2134 40.6183 27.5476 39.6539 29.964 38.9445C30.8295 38.7315 31.7205 38.6025 32.664 38.466C34.5862 38.3124 36.4606 37.7888 38.184 36.924C39.156 36.3688 39.9939 35.6067 40.6386 34.6917C41.2833 33.7767 41.7189 32.7311 41.9145 31.629C42.2332 29.7566 41.8652 27.8321 40.878 26.2095C41.345 25.4476 41.5916 24.5711 41.5905 23.6775L41.589 23.679ZM39.6795 23.679C39.6795 24.2634 39.5062 24.8348 39.1815 25.3207C38.8568 25.8067 38.3953 26.1854 37.8554 26.4091C37.3154 26.6327 36.7212 26.6912 36.148 26.5772C35.5748 26.4632 35.0483 26.1818 34.635 25.7685C34.2218 25.3552 33.9403 24.8287 33.8263 24.2555C33.7123 23.6823 33.7708 23.0881 33.9945 22.5482C34.2181 22.0082 34.5969 21.5467 35.0828 21.222C35.5688 20.8973 36.1401 20.724 36.7245 20.724C37.508 20.7248 38.2592 21.0364 38.8132 21.5904C39.3671 22.1444 39.6787 22.8955 39.6795 23.679V23.679ZM40.35 4.9095L35.589 18.9495C35.3851 18.9988 35.1847 19.0615 34.989 19.137L30.2865 9.537L25.569 19.08C25.3636 19.0088 25.1537 18.9517 24.9405 18.909L20.196 4.9095H40.35ZM23.9895 20.724C24.574 20.724 25.1453 20.8973 25.6312 21.222C26.1172 21.5467 26.4959 22.0082 26.7196 22.5482C26.9432 23.0881 27.0018 23.6823 26.8877 24.2555C26.7737 24.8287 26.4923 25.3552 26.079 25.7685C25.6658 26.1818 25.1392 26.4632 24.566 26.5772C23.9928 26.6912 23.3987 26.6327 22.8587 26.4091C22.3187 26.1854 21.8572 25.8067 21.5325 25.3207C21.2078 24.8348 21.0345 24.2634 21.0345 23.679C21.0353 22.8955 21.3469 22.1444 21.9009 21.5904C22.4549 21.0364 23.2061 20.7248 23.9895 20.724V20.724ZM11.2065 20.7525C11.7912 20.7528 12.3627 20.9266 12.8486 21.2518C13.3345 21.577 13.713 22.039 13.9362 22.5794C14.1594 23.1199 14.2173 23.7144 14.1025 24.2877C13.9877 24.861 13.7054 25.3874 13.2913 25.8002C12.8773 26.213 12.35 26.4937 11.7764 26.6067C11.2027 26.7198 10.6084 26.6601 10.0686 26.4353C9.52891 26.2104 9.06801 25.8305 8.74428 25.3436C8.42055 24.8567 8.24854 24.2847 8.25003 23.7C8.25082 22.9165 8.56241 22.1654 9.1164 21.6114C9.6704 21.0574 10.4216 20.7458 11.205 20.745L11.2065 20.7525ZM40.032 31.3035C39.8838 32.1303 39.5555 32.9145 39.0705 33.6004C38.5855 34.2862 37.9557 34.8571 37.2255 35.2725C35.7107 36.008 34.0703 36.4503 32.391 36.576C31.443 36.7125 30.4635 36.8535 29.505 37.0905C26.9534 37.8294 24.4891 38.8417 22.155 40.11C17.409 42.4665 13.305 44.502 9.44703 41.8245C6.61653 39.8625 6.74703 36.2325 7.07703 34.2435C7.46537 32.4334 8.11306 30.6889 9.00003 29.064C9.13803 28.7805 9.27303 28.5015 9.40503 28.2255C9.80795 28.3866 10.2308 28.4925 10.662 28.5405C10.2803 29.889 10.3869 31.3289 10.9632 32.6064C11.5395 33.8839 12.5485 34.9168 13.812 35.523L14.1795 35.712L14.568 35.574C16.7351 34.7918 18.7148 33.5656 20.3805 31.974C21.4808 30.939 22.4473 29.7704 23.2575 28.4955C24.2942 28.6532 25.3541 28.4714 26.279 27.9774C27.204 27.4834 27.9444 26.7035 28.3897 25.7542C28.8351 24.8048 28.9616 23.737 28.7504 22.7099C28.5391 21.6827 28.0014 20.7515 27.2175 20.055L30.2745 13.8735L33.363 20.1735C32.4843 21.0204 31.9563 22.1669 31.8841 23.3852C31.8118 24.6034 32.2005 25.8043 32.973 26.7491C33.7455 27.6939 34.8452 28.3136 36.0535 28.4848C37.2619 28.6561 38.4904 28.3664 39.495 27.6735C40.0521 28.7978 40.2385 30.0697 40.0275 31.3065L40.032 31.3035Z" fill="white"/>
</svg>
