<svg width="48" height="48" viewBox="0 0 48 48" fill="none" xmlns="http://www.w3.org/2000/svg">
<g clip-path="url(#clip0_690_548)">
<path d="M35.6235 45.0075C35.445 45.102 35.46 45.132 35.631 45.045C35.6865 45.0225 35.733 44.991 35.7735 44.9535C35.7735 44.922 35.7735 44.922 35.6235 45.0075V45.0075ZM35.9835 44.8125C35.898 44.883 35.898 44.883 36 44.8365C36.054 44.805 36.102 44.775 36.102 44.766C36.102 44.7255 36.078 44.7345 35.9835 44.8125V44.8125ZM36.2175 44.6715C36.132 44.742 36.132 44.742 36.234 44.6955C36.2895 44.664 36.336 44.631 36.336 44.6235C36.336 44.586 36.312 44.5935 36.2175 44.6715ZM36.4545 44.532C36.369 44.6025 36.369 44.6025 36.468 44.5545C36.5235 44.5245 36.57 44.493 36.57 44.484C36.57 44.4465 36.546 44.454 36.4545 44.532ZM36.774 44.3205C36.6105 44.43 36.5535 44.5005 36.7035 44.4225C36.804 44.361 36.975 44.226 36.945 44.226C36.8805 44.25 36.8265 44.2905 36.7725 44.3205H36.774ZM22.4295 0.0165182C22.32 0.0240182 21.9915 0.0540182 21.7035 0.0780182C14.8815 0.696018 8.499 4.36802 4.4535 10.0245C2.217 13.125 0.765 16.7265 0.2175 20.508C0.024 21.828 0 22.218 0 24.0075C0 25.7955 0.024 26.1795 0.2175 27.4995C1.524 36.516 7.938 44.085 16.632 46.89C18.1965 47.3895 19.836 47.7345 21.7035 47.946C22.4295 48.024 25.569 48.024 26.295 47.946C29.523 47.586 32.2485 46.7895 34.9455 45.414C35.3595 45.204 35.4375 45.1485 35.382 45.102C34.062 43.3605 32.766 41.6175 31.4685 39.8595L27.633 34.68L22.8285 27.5625C21.2265 25.1805 19.6185 22.8045 17.985 20.4465C17.9685 20.4465 17.9475 23.61 17.9385 27.468C17.922 34.2255 17.922 34.5 17.8365 34.656C17.751 34.8435 17.61 34.9995 17.4225 35.0865C17.274 35.157 17.1405 35.172 16.431 35.172H15.6195L15.408 35.04C15.276 34.9545 15.1665 34.836 15.096 34.6965L14.994 34.485L15.0015 25.0785L15.018 15.672L15.1665 15.4845C15.261 15.369 15.378 15.2745 15.51 15.204C15.7065 15.1095 15.7845 15.0945 16.596 15.0945C17.5485 15.0945 17.706 15.132 17.9565 15.4065C19.9005 18.3045 21.8385 21.21 23.745 24.1245C26.8635 28.8525 31.1205 35.304 33.213 38.469L37.0185 44.2275L37.206 44.103C39.0345 42.8835 40.698 41.4315 42.1335 39.7755C45.1575 36.3135 47.1195 32.055 47.784 27.51C47.9775 26.19 48.0015 25.7985 48.0015 24.0105C48.0015 22.221 47.9775 21.8385 47.784 20.5185C46.4775 11.502 40.0635 3.93302 31.3695 1.12652C29.7435 0.612018 28.071 0.261018 26.3775 0.0810182C25.923 0.0345182 22.821 -0.0209818 22.431 0.0195182L22.4295 0.0165182ZM32.25 14.532C32.4765 14.64 32.6475 14.844 32.7255 15.078C32.766 15.204 32.7735 17.8125 32.766 23.688L32.7495 32.124L31.266 29.844L29.7735 27.5625V21.438C29.7735 17.4675 29.79 15.2415 29.811 15.132C29.8815 14.8815 30.0525 14.6715 30.2805 14.5395C30.4665 14.445 30.5385 14.4375 31.281 14.4375C31.9755 14.4375 32.0925 14.445 32.2485 14.532H32.25Z" fill="white"/>
</g>
<defs>
<clipPath id="clip0_690_548">
<rect width="48" height="48" fill="white"/>
</clipPath>
</defs>
</svg>
