<svg width="44" height="48" viewBox="0 0 44 48" fill="none" xmlns="http://www.w3.org/2000/svg">
<path d="M19.7278 0.512092C20.9128 -0.169158 22.4563 -0.172235 23.6403 0.512092C29.5969 3.89253 35.5554 7.26767 41.511 10.6502C42.6311 11.2839 43.3804 12.5359 43.369 13.8323V34.1703C43.3773 35.5203 42.554 36.8023 41.3722 37.4217C35.4352 40.7835 29.5013 44.1494 23.5653 47.5112C22.3557 48.2058 20.7813 48.1523 19.6095 47.4008C17.8296 46.3644 16.0466 45.3332 14.2665 44.2979C13.9028 44.0802 13.4927 43.9068 13.2359 43.5526C13.463 43.2452 13.8689 43.2069 14.1988 43.0727C14.9418 42.8354 15.6241 42.4546 16.3067 42.085C16.4793 41.9663 16.69 42.0118 16.8555 42.1179C18.3775 42.9944 19.8861 43.8964 21.4133 44.7645C21.739 44.9534 22.0689 44.7026 22.3474 44.5467C28.1734 41.2396 34.0066 37.945 39.8316 34.6368C40.0475 34.5326 40.1668 34.3025 40.1493 34.065C40.1533 27.3559 40.1503 20.6457 40.1513 13.9366C40.176 13.6672 40.0207 13.4194 39.7782 13.3092C33.8618 9.96275 27.9484 6.61121 22.033 3.26393C21.9305 3.19317 21.8091 3.1552 21.6847 3.15502C21.5604 3.15483 21.4388 3.19244 21.3361 3.26291C15.4207 6.61121 9.5084 9.96583 3.593 13.3121C3.3513 13.4225 3.18908 13.6661 3.21785 13.9366C3.21887 20.6457 3.21785 27.3559 3.21785 34.066C3.20759 34.1819 3.23293 34.2981 3.29045 34.3991C3.34796 34.5 3.4349 34.5809 3.53955 34.6307C5.1181 35.5297 6.6987 36.4225 8.27827 37.3184C9.16815 37.7995 10.2607 38.0853 11.2412 37.7167C12.1064 37.4051 12.7128 36.5184 12.6963 35.5957C12.7045 28.9258 12.6922 22.2548 12.7024 15.5859C12.6808 15.2898 12.9605 15.0452 13.2471 15.0731C14.0056 15.0679 14.7651 15.0628 15.5235 15.0751C15.8401 15.0679 16.058 15.3868 16.0189 15.6851C16.0158 22.3972 16.027 29.1096 16.0138 35.8217C16.0158 37.6106 15.2841 39.5571 13.6366 40.4323C11.607 41.4883 9.09836 41.2644 7.09325 40.2518C5.35742 39.3817 3.70091 38.3547 1.99589 37.4225C0.81104 36.8066 -0.00819392 35.5195 0.000146502 34.1705V13.8323C-0.012279 12.5091 0.766785 11.2343 1.92185 10.6098C7.85785 7.24527 13.7928 3.87817 19.7278 0.512092Z" fill="#8CC84B"/>
<path d="M24.9064 14.6004C27.4953 14.433 30.2669 14.5012 32.5966 15.7822C34.4003 16.7638 35.4003 18.8239 35.4322 20.8366C35.3818 21.108 35.0992 21.2578 34.8412 21.2392C34.09 21.2381 33.3387 21.2494 32.5876 21.234C32.2689 21.2463 32.0837 20.9513 32.0437 20.6684C31.8279 19.7054 31.305 18.7516 30.4025 18.2871C29.0172 17.5905 27.4109 17.6255 25.9002 17.6401C24.7974 17.6989 23.6116 17.7948 22.6773 18.4461C21.96 18.9395 21.7421 19.9355 21.9981 20.7376C22.2395 21.3135 22.9014 21.4994 23.4431 21.6707C26.5631 22.4902 29.8693 22.4087 32.9297 23.4872C34.1968 23.9269 35.4362 24.7817 35.87 26.1141C36.4373 27.8999 36.1886 30.0344 34.9236 31.468C33.8977 32.6478 32.4036 33.2899 30.9134 33.6386C28.9309 34.0826 26.8735 34.0939 24.8602 33.8967C22.9671 33.68 20.9971 33.1805 19.5357 31.885C18.2859 30.7951 17.6756 29.0971 17.7362 27.4581C17.7506 27.1813 18.025 26.9883 18.289 27.0111C19.0454 27.0049 19.8019 27.0029 20.5583 27.0121C20.8604 26.9904 21.0844 27.2526 21.0999 27.5386C21.2395 28.4561 21.5828 29.4191 22.3794 29.9631C23.9168 30.9592 25.8458 30.891 27.6061 30.9189C29.0645 30.8539 30.7016 30.8343 31.8917 29.8662C32.5197 29.314 32.7057 28.3902 32.536 27.5954C32.3522 26.9244 31.6533 26.6117 31.0531 26.4073C27.9731 25.4287 24.63 25.7838 21.5797 24.6772C20.3414 24.2377 19.144 23.4067 18.6682 22.129C18.0044 20.3206 18.3086 18.0839 19.7062 16.6986C21.0689 15.3207 23.0361 14.7901 24.9064 14.6002V14.6004Z" fill="#8CC84B"/>
</svg>
