<svg width="48" height="48" viewBox="0 0 48 48" fill="none" xmlns="http://www.w3.org/2000/svg">
<path d="M39.165 26.358C37.846 26.3597 36.5447 26.6613 35.3595 27.24C34.9884 26.6242 34.7018 25.9612 34.5075 25.269C34.3958 24.7264 34.37 24.1696 34.431 23.619C34.5592 23.0131 34.7255 22.4159 34.929 21.831C34.9215 21.7545 34.8375 21.393 33.993 21.381C33.1485 21.369 32.421 21.5415 32.343 21.765C32.1963 22.1732 32.0785 22.5913 31.9905 23.016C31.2916 24.7403 30.4312 26.3946 29.421 27.957C28.855 27.0291 28.6222 25.936 28.761 24.858C28.8892 24.2521 29.0555 23.6549 29.259 23.07C29.2515 22.9935 29.1675 22.632 28.323 22.62C27.4785 22.608 26.751 22.7805 26.673 23.004C26.595 23.2275 26.496 23.754 26.3205 24.255C26.145 24.756 24.096 29.334 23.559 30.5145C23.283 31.1145 23.0445 31.6035 22.8765 31.9335C22.8685 31.9549 22.8585 31.9755 22.8465 31.995C22.6965 32.2785 22.617 32.433 22.617 32.433V32.4405C22.5015 32.6475 22.3785 32.8395 22.317 32.8395C22.2097 32.411 22.2149 31.962 22.332 31.536C22.632 29.9475 23.367 27.4785 23.3595 27.393C23.3595 27.3465 23.4975 26.9175 22.884 26.6955C22.7417 26.6278 22.5819 26.6059 22.4266 26.6327C22.2714 26.6596 22.1283 26.7339 22.017 26.8455C21.963 26.8455 21.9255 26.976 21.9255 26.976C21.9255 26.976 22.593 24.1995 20.652 24.1995C19.8961 24.3515 19.1783 24.6532 18.5407 25.0868C17.9032 25.5203 17.3587 26.077 16.9395 26.724C16.4175 27.0075 15.306 27.6135 14.1165 28.266C13.6665 28.5195 13.1955 28.773 12.759 29.016C12.729 28.986 12.6975 28.947 12.6675 28.917C10.305 26.4 5.96248 24.624 6.14998 21.2565C6.21898 20.0295 6.64048 16.8075 14.4885 12.894C20.9475 9.711 26.088 10.593 26.9775 12.549C28.251 15.342 24.2235 20.5275 17.55 21.279C16.8117 21.4288 16.0492 21.4107 15.3188 21.2261C14.5885 21.0415 13.9089 20.6951 13.3305 20.2125C12.978 19.8285 12.924 19.806 12.7935 19.8825C12.579 19.998 12.717 20.343 12.7935 20.5425C13.0481 21.0032 13.3924 21.4083 13.8062 21.7336C14.2199 22.059 14.6947 22.2982 15.2025 22.437C17.8278 23.0043 20.565 22.7331 23.028 21.6615C27.078 20.097 30.228 15.747 29.304 12.1035C28.3755 8.406 22.239 7.1865 16.431 9.2535C12.7931 10.4776 9.43173 12.4058 6.53848 14.928C3.33898 17.9205 2.83348 20.52 3.04048 21.6105C3.79048 25.4775 9.11698 27.993 11.2485 29.8605C11.1405 29.922 11.0415 29.976 10.9575 30.021C9.89098 30.5505 5.82598 32.676 4.80748 34.923C3.65698 37.473 4.99198 39.2955 5.87398 39.5415C7.20299 39.8596 8.59817 39.7548 9.86475 39.2418C11.1313 38.7287 12.2061 37.8329 12.939 36.6795C13.5631 35.7228 13.9467 34.6295 14.0572 33.4926C14.1676 32.3557 14.0017 31.2089 13.5735 30.15C13.5662 30.1329 13.5561 30.1172 13.5435 30.1035L14.379 29.613C14.9235 29.2905 15.4605 28.992 15.921 28.746C15.6087 29.6467 15.4254 30.587 15.3765 31.539C15.2705 32.9982 15.717 34.4438 16.6275 35.589C16.766 35.7083 16.9269 35.7988 17.1007 35.8555C17.2745 35.9121 17.4578 35.9337 17.64 35.919C18.54 35.919 18.9525 35.169 19.404 34.278C19.956 33.189 20.454 31.923 20.454 31.923C20.454 31.923 19.833 35.3445 21.5205 35.3445C22.134 35.3445 22.755 34.5465 23.0325 34.1445V34.152C23.0325 34.152 23.0475 34.1295 23.079 34.0755L23.178 33.915V33.9C23.424 33.471 23.976 32.496 24.7965 30.8775C25.8555 28.791 26.8755 26.1825 26.8755 26.1825C26.9739 26.7558 27.1097 27.322 27.282 27.8775C27.529 28.5509 27.8212 29.2069 28.1565 29.841C27.9105 30.186 27.7575 30.378 27.7575 30.378L27.765 30.3855C27.5655 30.6465 27.351 30.93 27.1125 31.206C26.4029 31.9861 25.7445 32.8114 25.1415 33.6765C25.0519 33.8218 25.0211 33.9958 25.0554 34.1631C25.0897 34.3303 25.1864 34.4782 25.326 34.5765C25.6418 34.7408 26.0017 34.8002 26.3535 34.746C26.8837 34.7161 27.405 34.5969 27.8955 34.3935C28.3695 34.2267 28.8167 33.9917 29.223 33.696C29.6418 33.4058 29.979 33.0128 30.202 32.5546C30.425 32.0965 30.5264 31.5887 30.4965 31.08C30.4493 30.4393 30.2856 29.8125 30.0135 29.2305C30.09 29.1225 30.1635 29.016 30.2355 28.908C31.0883 27.6351 31.8569 26.3077 32.5365 24.9345C32.6349 25.5078 32.7707 26.074 32.943 26.6295C33.1468 27.2114 33.3976 27.7758 33.693 28.317C32.7119 29.0718 31.9391 30.064 31.4475 31.2C30.9645 32.5965 31.3395 33.225 32.0475 33.3705C32.4349 33.3972 32.8223 33.3179 33.168 33.141C33.6763 32.9739 34.1552 32.7279 34.587 32.412C35.0423 32.1433 35.4237 31.7656 35.6968 31.3128C35.9699 30.8601 36.1261 30.3466 36.1515 29.8185C36.1174 29.2914 35.9984 28.7732 35.799 28.284C37.0936 27.7782 38.4974 27.617 39.873 27.816C43.524 28.245 44.2455 30.5235 44.1075 31.4835C44.0428 31.8238 43.9059 32.1464 43.7062 32.4294C43.5065 32.7125 43.2484 32.9495 42.9495 33.1245C42.696 33.285 42.612 33.339 42.6345 33.4545C42.6645 33.624 42.7845 33.615 43.002 33.585C43.5522 33.414 44.0377 33.0802 44.3944 32.6276C44.7511 32.1751 44.9623 31.625 45 31.05C45.1155 28.8 42.9675 26.3325 39.1695 26.355L39.165 26.358ZM10.995 35.85C9.78298 37.17 8.09548 37.668 7.36648 37.2465C6.58348 36.7965 6.89098 34.8465 8.37898 33.4485C9.26166 32.6539 10.2157 31.9424 11.229 31.323C11.406 31.215 11.667 31.062 11.979 30.873L12.063 30.8265L12.2475 30.711C12.5133 31.6017 12.5374 32.5471 12.3173 33.4502C12.0972 34.3532 11.6408 35.1815 10.995 35.85V35.85ZM19.8165 29.85C19.395 30.8775 18.513 33.51 17.976 33.363C17.5155 33.24 17.226 31.245 17.8845 29.274C18.217 28.3252 18.7013 27.4366 19.3185 26.643C19.9785 25.9065 20.7075 25.6605 20.883 25.9605C20.7229 27.3028 20.3634 28.6137 19.8165 29.85V29.85ZM27.096 33.333C26.919 33.4245 26.751 33.483 26.6745 33.441C26.6205 33.411 26.751 33.291 26.751 33.291C26.751 33.291 27.6645 32.3085 28.0245 31.8645C28.2315 31.6035 28.4745 31.2975 28.7385 30.951V31.05C28.7385 32.223 27.603 33.0135 27.0975 33.336L27.096 33.333ZM32.712 32.052C32.5815 31.9605 32.604 31.653 33.042 30.6945C33.3465 30.0789 33.772 29.531 34.293 29.0835C34.3728 29.3106 34.4144 29.5493 34.416 29.79C34.4219 30.3023 34.2581 30.8022 33.9501 31.2116C33.6421 31.6211 33.2073 31.9171 32.7135 32.0535L32.712 32.052Z" fill="#CD6799"/>
</svg>
