<svg width="39" height="48" viewBox="0 0 39 48" fill="none" xmlns="http://www.w3.org/2000/svg">
<mask id="mask0_690_500" style="mask-type:alpha" maskUnits="userSpaceOnUse" x="0" y="0" width="39" height="48">
<path d="M1.48551 44.1366L0.00172456 4.60036C-0.0472791 3.29463 0.953904 2.18805 2.258 2.10654L35.8863 0.00477149C37.2137 -0.0781921 38.3571 0.930637 38.44 2.25806C38.4431 2.30807 38.4447 2.35817 38.4447 2.40827V45.4899C38.4447 46.82 37.3665 47.8981 36.0365 47.8981C36.0005 47.8981 35.9645 47.8973 35.9285 47.8957L3.78396 46.452C2.53206 46.3958 1.53251 45.3888 1.48551 44.1366Z" fill="white"/>
</mask>
<g mask="url(#mask0_690_500)">
<path d="M1.48551 44.1366L0.00172456 4.60036C-0.0472791 3.29463 0.953904 2.18805 2.258 2.10654L35.8863 0.00477149C37.2137 -0.0781921 38.3571 0.930637 38.44 2.25806C38.4431 2.30807 38.4447 2.35817 38.4447 2.40827V45.4899C38.4447 46.82 37.3665 47.8981 36.0365 47.8981C36.0005 47.8981 35.9645 47.8973 35.9285 47.8957L3.78396 46.452C2.53206 46.3958 1.53251 45.3888 1.48551 44.1366Z" fill="#FF4785"/>
<path d="M28.3886 5.88744L28.6183 0.362857L33.2364 0L33.4354 5.69732C33.4423 5.8956 33.2872 6.06195 33.0889 6.06887C33.004 6.07184 32.9208 6.04462 32.8541 5.99205L31.0732 4.5891L28.9646 6.18858C28.8065 6.30848 28.5812 6.27754 28.4613 6.11947C28.4108 6.05294 28.3851 5.97089 28.3886 5.88744ZM22.4824 18.0535C22.4824 18.9904 28.7934 18.5413 29.6406 17.8832C29.6406 11.503 26.2171 8.15024 19.9481 8.15024C13.6791 8.15024 10.1667 11.5551 10.1667 16.6625C10.1667 25.5577 22.1711 25.728 22.1711 30.5799C22.1711 31.9419 21.5042 32.7506 20.037 32.7506C18.1252 32.7506 17.3694 31.7742 17.4583 28.4544C17.4583 27.7342 10.1667 27.5097 9.94438 28.4544C9.3783 36.4994 14.3905 38.8199 20.1259 38.8199C25.6836 38.8199 30.0407 35.8575 30.0407 30.4948C30.0407 20.9611 17.8584 21.2165 17.8584 16.4922C17.8584 14.577 19.2812 14.3216 20.1259 14.3216C21.0152 14.3216 22.6158 14.4783 22.4824 18.0535Z" fill="white"/>
</g>
</svg>
