<svg width="48" height="48" viewBox="0 0 48 48" fill="none" xmlns="http://www.w3.org/2000/svg">
<path d="M27.0749 44.4C27.1379 44.2575 27.2969 44.1585 27.4124 44.0385C29.1749 42.1905 30.9524 40.359 32.6909 38.4885C33.235 37.9861 33.6553 37.3646 33.9192 36.6727C34.1831 35.9807 34.2833 35.2371 34.2119 34.5C34.1574 34.1844 34.0858 33.8719 33.9974 33.564C33.5234 34.014 33.0824 34.4235 32.6384 34.836C31.9484 35.478 31.2614 36.123 30.5654 36.7575C30.155 37.176 29.6273 37.4601 29.0521 37.5723C28.4768 37.6845 27.881 37.6196 27.3434 37.386C26.7993 37.1861 26.3258 36.8308 25.9818 36.3641C25.6378 35.8974 25.4384 35.34 25.4084 34.761C25.3923 34.6865 25.3708 34.6134 25.3439 34.542C24.8144 34.992 24.3074 35.406 23.8049 35.832L13.3604 44.682C13.2884 44.7435 13.2104 44.82 13.1429 44.88H27.0674L27.0464 44.8665C26.9714 44.814 27.0104 44.538 27.0749 44.4Z" fill="#FFCEBF"/>
<path d="M12.5055 44.4C12.6294 44.2388 12.7789 44.0989 12.948 43.986L27.402 31.7235C28.388 30.8865 29.3695 30.045 30.3465 29.199C30.4672 29.1149 30.5618 28.9984 30.6195 28.863C30.8532 27.8447 30.8863 26.7905 30.717 25.7595C30.567 25.8645 30.486 25.9095 30.417 25.983C29.2335 27.042 28.056 28.11 26.8665 29.163C26.4725 29.5596 25.9628 29.821 25.4108 29.9097C24.8588 29.9984 24.2929 29.9097 23.7945 29.6565C23.286 29.4165 22.8604 29.0305 22.5719 28.5479C22.2835 28.0652 22.1451 27.5076 22.1745 26.946C22.1745 26.8185 22.1745 26.6925 22.1745 26.46C21.957 26.619 21.798 26.7255 21.6495 26.8455C15.8645 31.4775 10.0805 36.106 4.29752 40.731C4.03652 40.9395 3.72452 41.4045 3.38252 40.953C3.04052 40.5015 3.56102 40.3155 3.82352 40.1055C9.98852 35.1585 16.1565 30.216 22.3275 25.278C23.3325 24.4725 23.3985 24.135 22.7445 22.8555L22.3545 23.2215C21.285 24.216 20.2035 25.197 19.1505 26.208C18.7186 26.6247 18.1776 26.9106 17.5901 27.0329C17.0025 27.1552 16.3924 27.1088 15.8301 26.8991C15.2678 26.6894 14.7762 26.3249 14.4122 25.8478C14.0483 25.3706 13.8267 24.8003 13.773 24.2025C13.5735 24.3525 13.401 24.462 13.2375 24.5895L4.08752 31.6815C3.9297 31.8363 3.74973 31.9667 3.55352 32.0685C3.40543 32.1133 3.2464 32.1053 3.10352 32.046V44.8875H12.4875C12.4526 44.8104 12.4361 44.7262 12.4392 44.6417C12.4423 44.5571 12.465 44.4744 12.5055 44.4V44.4Z" fill="#FFCEBF"/>
<path d="M37.8555 3.63449C37.6005 4.46999 37.353 5.30699 37.1295 6.15149C36.923 6.74828 36.9471 7.40067 37.1968 7.98066C37.4466 8.56066 37.904 9.02639 38.4795 9.28649C40.2396 10.2117 42.223 10.6273 44.2065 10.4865V3.77699C44.1844 3.62988 44.1926 3.47983 44.2305 3.33599C44.2725 3.25462 44.3255 3.17942 44.388 3.11249H37.8495C37.95 3.22949 37.9155 3.43499 37.8555 3.63449Z" fill="#FF6196"/>
<path d="M24.7231 18.048C24.692 18.7969 24.43 19.5178 23.9731 20.112C22.3396 22.2206 20.4637 24.1298 18.3841 25.8C18.0487 26.1104 17.6236 26.3067 17.1698 26.3606C16.716 26.4145 16.2568 26.3233 15.8581 26.1C15.4612 25.9304 15.1265 25.6421 14.9001 25.2747C14.6737 24.9073 14.5666 24.4788 14.5936 24.048C14.6416 23.519 14.8613 23.0201 15.2191 22.6275C17.5446 20.4101 20.0641 18.4056 22.7476 16.638C22.9233 16.5002 23.1379 16.4211 23.3611 16.412C23.5842 16.4028 23.8046 16.464 23.9911 16.587C24.2361 16.7392 24.4342 16.9562 24.5634 17.2141C24.6926 17.472 24.7479 17.7606 24.7231 18.048Z" fill="#FF87AF"/>
<path d="M22.926 27.1395C22.8912 26.8079 22.9337 26.4728 23.0503 26.1605C23.1669 25.8481 23.3544 25.5671 23.598 25.3395C25.8749 23.2393 28.3179 21.3266 30.903 19.62C30.981 19.5705 31.053 19.521 31.1385 19.47C31.3643 19.307 31.6379 19.2236 31.9162 19.2332C32.1945 19.2427 32.4618 19.3444 32.676 19.5225C32.8832 19.698 33.0298 19.9344 33.095 20.198C33.1601 20.4616 33.1405 20.7391 33.039 20.991C32.7119 22.0803 32.1083 23.0663 31.287 23.853C29.6295 25.503 27.909 27.099 26.187 28.683C25.9262 28.9511 25.5837 29.125 25.2133 29.1771C24.8429 29.2292 24.4656 29.1567 24.141 28.971C23.7998 28.7937 23.5093 28.5326 23.2968 28.2122C23.0843 27.8919 22.9567 27.5227 22.926 27.1395Z" fill="#FF87AF"/>
<path d="M33.75 28.131C33.33 28.581 32.898 29.01 32.4945 29.4705C32.3732 29.6485 32.2725 29.8397 32.1945 30.0405C32.4165 30.1065 32.676 30.2805 32.856 30.219C33.7725 29.9115 34.6665 29.5425 35.673 29.154C35.454 29.658 35.289 30.123 35.0565 30.549C34.0987 32.1587 32.8992 33.6116 31.5 34.857C30.968 35.37 30.4155 35.8605 29.8425 36.3285C29.5391 36.5803 29.1742 36.747 28.7852 36.8115C28.3962 36.876 27.997 36.836 27.6285 36.6957C27.26 36.5553 26.9355 36.3196 26.688 36.0126C26.4405 35.7056 26.279 35.3384 26.22 34.9485C26.196 34.7317 26.2151 34.5123 26.2764 34.303C26.3377 34.0937 26.4399 33.8986 26.577 33.729C28.6183 31.5124 30.9511 29.5832 33.5115 27.9945C33.5427 27.9824 33.5756 27.9758 33.609 27.975L33.75 28.131Z" fill="#FF87AF"/>
<path d="M37.191 22.1565L39.7575 10.7565L41.5575 11.178L40.629 13.9995C39.762 16.6245 38.8845 19.2495 38.0385 21.8775C37.8735 22.3635 37.6575 22.4535 37.191 22.1565Z" fill="#FF6196"/>
<path d="M34.293 28.8615C34.5645 27.825 34.8345 26.8665 35.0625 25.8975C35.2847 24.9578 35.7073 24.0772 36.3015 23.316C36.666 22.8375 37.0755 23.028 37.494 23.1315C37.881 23.226 37.9785 23.5095 37.995 23.8815C38.056 24.9102 37.7427 25.9263 37.113 26.742C36.3633 27.6714 35.3942 28.3998 34.293 28.8615V28.8615Z" fill="#FF6196"/>
<path d="M44.9895 4.34102C45.0119 4.00695 45.0033 3.67152 44.964 3.33902C44.933 3.24614 44.8717 3.16637 44.79 3.11252C44.7234 3.05837 44.6455 3.01992 44.562 3.00002C44.514 2.99102 44.4465 3.04052 44.382 3.11102C44.3195 3.17795 44.2665 3.25315 44.2245 3.33452C44.1866 3.47836 44.1784 3.62841 44.2005 3.77552V10.4835C42.217 10.6243 40.2336 10.2087 38.4735 9.28352C37.898 9.02342 37.4406 8.55769 37.1908 7.97769C36.941 7.3977 36.917 6.74531 37.1235 6.14852C37.347 5.30402 37.5945 4.46702 37.8495 3.63152C37.9095 3.43202 37.944 3.22652 37.8495 3.10952C37.7969 3.05256 37.7243 3.01816 37.647 3.01352C37.5479 3.01459 37.4519 3.04833 37.374 3.10952C37.2618 3.17661 37.1724 3.27592 37.1175 3.39452C36.8175 4.29452 36.5535 5.20352 36.324 6.12152C36.2373 6.48327 36.214 6.8573 36.255 7.22702C36.313 7.89598 36.5618 8.53424 36.9718 9.06601C37.3818 9.59778 37.9358 10.0007 38.568 10.227C38.8515 10.3455 39.018 10.4625 38.9385 10.836C38.829 11.31 38.7225 11.784 38.6145 12.2595C37.8795 15.4815 37.1485 18.705 36.4215 21.93C36.401 22.0738 36.3377 22.2081 36.24 22.3155C35.7608 22.6964 35.3582 23.1647 35.0535 23.6955C34.6652 24.3961 34.3965 25.1565 34.2585 25.9455C34.232 26.1972 34.141 26.4378 33.9944 26.6441C33.8478 26.8503 33.6505 27.0153 33.4215 27.123C32.796 27.4395 32.2215 27.849 31.527 28.275C31.5733 27.4398 31.5643 26.6025 31.5 25.7685C31.4471 25.512 31.4583 25.2463 31.5326 24.9952C31.6069 24.744 31.742 24.515 31.926 24.3285C32.8408 23.4222 33.4929 22.2849 33.813 21.0375C33.9086 20.7484 33.9348 20.4408 33.8895 20.1396C33.8442 19.8385 33.7287 19.5522 33.5523 19.304C33.3759 19.0557 33.1435 18.8525 32.8741 18.7106C32.6046 18.5688 32.3055 18.4924 32.001 18.4875C31.508 18.482 31.0239 18.6196 30.6075 18.8835C29.172 19.8525 27.7755 20.8815 26.3895 21.9225C25.569 22.5405 24.7965 23.2245 24.0015 23.8725C23.9672 23.8357 23.9375 23.7949 23.913 23.751C23.8978 23.6406 23.868 23.5326 23.8245 23.43C23.16 22.404 23.6205 21.6585 24.342 20.892C25.0936 20.1041 25.509 19.0544 25.5 17.9655C25.5233 17.4107 25.3495 16.8655 25.0095 16.4265C24.8283 16.2037 24.6051 16.0187 24.3525 15.882C23.9937 15.6856 23.5834 15.6037 23.1767 15.6471C22.7699 15.6905 22.3862 15.8573 22.077 16.125L21.6585 16.425C20.703 17.109 19.7355 17.775 18.816 18.507C17.4735 19.575 16.1625 20.688 14.877 21.828C14.277 22.3575 13.839 23.0805 13.2165 23.5725C9.97047 26.136 6.68997 28.653 3.42147 31.1865C3.30908 31.2536 3.20574 31.3347 3.11397 31.428C3.10452 31.4417 3.09648 31.4562 3.08997 31.4715C3.02097 31.632 2.96247 31.8975 3.04347 31.995C3.06333 32.0162 3.08732 32.033 3.11397 32.0445C3.25686 32.1038 3.41588 32.1118 3.56397 32.067C3.76019 31.9652 3.94016 31.8348 4.09797 31.68L13.248 24.588C13.4115 24.4605 13.584 24.345 13.7835 24.201C13.8371 24.7988 14.0587 25.3691 14.4227 25.8463C14.7867 26.3234 15.2782 26.6879 15.8405 26.8976C16.4028 27.1073 17.013 27.1537 17.6005 27.0314C18.1881 26.9091 18.729 26.6232 19.161 26.2065C20.211 25.1955 21.2955 24.2145 22.365 23.22L22.755 22.854C23.409 24.1335 23.343 24.471 22.338 25.2765C16.162 30.2185 9.99047 35.1615 3.82347 40.1055C3.56097 40.3155 3.04197 40.506 3.38247 40.953C3.72297 41.4 4.03647 40.9395 4.29747 40.731C10.0835 36.11 15.8655 31.483 21.6435 26.85C21.7935 26.73 21.951 26.6235 22.1685 26.4645C22.1685 26.697 22.1685 26.823 22.1685 26.9505C22.1391 27.5121 22.2774 28.0697 22.5659 28.5524C22.8544 29.035 23.28 29.421 23.7885 29.661C24.2869 29.9142 24.8528 30.0029 25.4048 29.9142C25.9568 29.8255 26.4664 29.5641 26.8605 29.1675C28.05 28.1175 29.2275 27.0465 30.411 25.9875C30.486 25.92 30.573 25.869 30.711 25.764C30.8803 26.795 30.8472 27.8492 30.6135 28.8675C30.5558 29.0029 30.4612 29.1193 30.3405 29.2035C29.3625 30.0485 28.381 30.89 27.396 31.728L12.948 43.992C12.7788 44.1049 12.6293 44.2447 12.5055 44.406C12.4659 44.4796 12.4438 44.5612 12.4407 44.6447C12.4375 44.7281 12.4535 44.8112 12.4875 44.8875V44.8875C12.5552 44.9383 12.6336 44.9732 12.7167 44.9895C12.7998 45.0059 12.8855 45.0033 12.9675 44.982C13.0322 44.9632 13.0917 44.9299 13.1415 44.8845C13.2165 44.8245 13.2915 44.748 13.359 44.6865L23.8035 35.8365C24.306 35.4105 24.813 34.9905 25.3425 34.5465C25.3693 34.6178 25.3908 34.691 25.407 34.7655C25.4369 35.3445 25.6363 35.9019 25.9803 36.3686C26.3243 36.8352 26.7978 37.1906 27.342 37.3905C27.8796 37.624 28.4753 37.689 29.0506 37.5768C29.6259 37.4646 30.1536 37.1805 30.564 36.762C31.26 36.1275 31.947 35.4825 32.637 34.8405C33.087 34.428 33.522 34.014 33.996 33.5685C34.0843 33.8764 34.1559 34.1889 34.2105 34.5045C34.2794 35.2392 34.1781 35.9799 33.9143 36.669C33.6505 37.3581 33.2314 37.9772 32.6895 38.478C30.951 40.35 29.1735 42.1815 27.411 44.028C27.2955 44.148 27.1365 44.247 27.0735 44.3895C27.0105 44.532 26.97 44.811 27.045 44.871L27.066 44.8845C27.2233 44.961 27.4001 44.9877 27.573 44.961C27.6214 44.9511 27.6646 44.9239 27.6945 44.8845C27.7365 44.841 27.777 44.787 27.8175 44.7465C29.2455 43.2705 30.681 41.802 32.0985 40.3155C32.6706 39.7358 33.2085 39.1233 33.7095 38.481C34.3627 37.7579 34.7958 36.8633 34.9579 35.9024C35.12 34.9416 35.0043 33.9544 34.6245 33.057C34.5836 32.8569 34.6235 32.6488 34.7355 32.478C34.833 32.31 34.941 32.1465 35.052 31.9845C35.4071 31.5234 35.703 31.0194 35.9325 30.4845C36.376 29.1717 37.0568 27.9515 37.941 26.8845C38.3475 26.3692 38.6271 25.7655 38.7574 25.1222C38.8877 24.4788 38.8649 23.8139 38.691 23.181C38.6295 22.9404 38.6295 22.6882 38.691 22.4475C39.45 20.097 40.2315 17.754 41.0055 15.4095C41.3525 14.3595 41.6975 13.3125 42.0405 12.2685L42.36 11.298C43.041 11.298 43.683 11.2845 44.322 11.298C44.853 11.313 45.015 11.064 45.009 10.548C44.9775 8.47802 44.9895 6.40952 44.9895 4.34102ZM18.384 25.8C18.0486 26.1105 17.6235 26.3067 17.1697 26.3606C16.7159 26.4145 16.2567 26.3233 15.858 26.1C15.4611 25.9305 15.1264 25.6422 14.9 25.2747C14.6736 24.9073 14.5665 24.4788 14.5935 24.048C14.6415 23.519 14.8612 23.0202 15.219 22.6275C17.5445 20.4101 20.0641 18.4056 22.7475 16.638C22.8939 16.5345 23.0605 16.4629 23.2365 16.428C23.3545 16.4063 23.4755 16.4063 23.5935 16.428C23.7348 16.4555 23.8697 16.5095 23.991 16.587C24.2363 16.7393 24.4345 16.9566 24.5638 17.2148C24.693 17.4729 24.7481 17.7619 24.723 18.0495C24.6919 18.7984 24.4299 19.5194 23.973 20.1135C22.3394 22.2216 20.4635 24.1302 18.384 25.8ZM26.184 28.6935C25.9232 28.9617 25.5807 29.1355 25.2103 29.1877C24.8399 29.2398 24.4626 29.1673 24.138 28.9815C23.7962 28.8038 23.5053 28.5421 23.2927 28.2208C23.0802 27.8996 22.9529 27.5295 22.923 27.1455C22.8882 26.814 22.9307 26.4788 23.0473 26.1665C23.1639 25.8542 23.3514 25.5731 23.595 25.3455C25.8719 23.2454 28.3149 21.3327 30.9 19.626C30.978 19.5765 31.05 19.527 31.1355 19.476C31.3613 19.313 31.6349 19.2297 31.9132 19.2392C32.1915 19.2487 32.4588 19.3505 32.673 19.5285C32.8802 19.704 33.0268 19.9404 33.092 20.2041C33.1571 20.4677 33.1375 20.7452 33.036 20.997C32.7089 22.0863 32.1053 23.0723 31.284 23.859C29.6295 25.512 27.909 27.1035 26.187 28.6875L26.184 28.6935ZM35.0505 30.555C34.094 32.1622 32.8965 33.6131 31.5 34.857C30.968 35.37 30.4155 35.8605 29.8425 36.3285C29.539 36.5803 29.1741 36.747 28.7851 36.8115C28.3961 36.8761 27.997 36.8361 27.6285 36.6957C27.26 36.5553 26.9354 36.3196 26.6879 36.0126C26.4404 35.7056 26.279 35.3384 26.22 34.9485C26.1959 34.7317 26.2151 34.5123 26.2764 34.303C26.3376 34.0937 26.4398 33.8986 26.577 33.729C28.6182 31.5124 30.951 29.5833 33.5115 27.9945C33.5426 27.9824 33.5756 27.9758 33.609 27.975L33.759 28.125C33.339 28.575 32.907 29.004 32.5035 29.4645C32.3821 29.6425 32.2815 29.8337 32.2035 30.0345C32.4255 30.1005 32.685 30.2745 32.865 30.213C33.5895 29.97 34.302 29.688 35.0655 29.388L35.682 29.148C35.451 29.658 35.286 30.123 35.0535 30.549L35.0505 30.555ZM37.11 26.7525C36.5504 27.4648 35.8492 28.0532 35.0505 28.4805C34.8035 28.6185 34.55 28.7475 34.29 28.8675C34.557 27.846 34.824 26.8995 35.0505 25.9425L35.0595 25.9035C35.2817 24.9638 35.7043 24.0832 36.2985 23.322C36.663 22.8435 37.0725 23.034 37.491 23.1375C37.878 23.232 37.9755 23.5155 37.992 23.8875C38.0535 24.9154 37.7413 25.9308 37.113 26.7465L37.11 26.7525ZM40.62 14.0025C39.753 16.6275 38.8755 19.2525 38.0295 21.8805C37.8705 22.374 37.6545 22.464 37.188 22.167L39.4125 12.2775L39.7545 10.7595L41.5545 11.181C41.4315 11.5515 41.313 11.916 41.193 12.2775L40.62 14.0025Z" fill="black"/>
</svg>
