<svg width="49" height="48" viewBox="0 0 49 48" fill="none" xmlns="http://www.w3.org/2000/svg">
<path d="M0.196871 23.9992L0 0H48L48.3937 47.9984H0.393742" fill="#007ACC"/>
<path d="M9.72151 24.0832L9.73755 26.0391H15.9776L16.1232 43.7986H20.5512L20.4056 26.0391H26.6456L26.6298 24.1192C26.6209 23.0392 26.6138 22.1633 26.5656 22.1393C26.5653 22.1033 22.7612 22.0913 18.1412 22.0913L9.74146 22.1273L9.75761 24.0952L9.72151 24.0832V24.0832ZM37.7491 22.0793C38.9754 22.3673 39.916 22.9193 40.7631 23.7952C41.2111 24.2752 41.878 25.1152 41.9277 25.3312C41.9283 25.4032 39.8639 26.8071 38.6103 27.5871C38.5625 27.6231 38.3689 27.4191 38.1743 27.1071C37.543 26.2191 36.9039 25.8352 35.9073 25.7632C34.4665 25.6672 33.5127 26.4231 33.523 27.6831C33.5262 28.0671 33.6 28.2831 33.7465 28.5951C34.0759 29.255 34.6792 29.651 36.5459 30.467C39.99 31.9429 41.486 32.9149 42.3974 34.3069C43.4302 35.8668 43.6783 38.3147 43.0093 40.1507C42.2577 42.1546 40.3969 43.5106 37.7245 43.9545C36.8857 44.0985 34.9655 44.0745 34.0642 43.9185C32.1413 43.5586 30.2974 42.5986 29.1593 41.3626C28.7113 40.8827 27.8488 39.5987 27.8961 39.5147L28.3497 39.2267L30.1412 38.1827L31.4907 37.3908L31.8061 37.8108C32.2072 38.4347 33.1021 39.2747 33.6205 39.5627C35.1871 40.3667 37.2742 40.2587 38.2985 39.3227C38.7392 38.9147 38.9276 38.4827 38.9227 37.8828C38.9182 37.3308 38.8321 37.0788 38.5527 36.6588C38.1643 36.1308 37.3928 35.6988 35.2249 34.7389C32.7323 33.6829 31.6707 33.0109 30.6783 31.9789C30.1092 31.355 29.5852 30.383 29.3386 29.579C29.1529 28.8831 29.0789 27.1791 29.2413 26.4951C29.7376 24.0952 31.5358 22.4153 34.1239 21.9353C34.9625 21.7673 36.9431 21.8393 37.7729 22.0553L37.7491 22.0793V22.0793Z" fill="white"/>
</svg>
